#!OML:ASF G:\JayActor3\Patient Classification 1\Patient 1\Session 5\male.ASF
:FULLY-SPECIFIED
:DEGREES
655
root -20.8839 16.7744 -6.23117 689.317 -80.3478 -672.335
lowerback 25.619 -1.09357 -0.75788
upperback 6.79765 -2.15272 -0.975526
thorax -6.69326 -1.21827 0.0453237
lowerneck 1.06666 -1.68818 1.1371
upperneck -5.37454 -2.19743 1.30995
head -1.84687 -1.1645 0.260264
rclavicle -4.33351e-014 -1.74931e-014
rhumerus -31.6624 -4.21116 -85.5228
rradius 26.9391
rwrist 2.14275
rhand -21.3438 -7.66419
rfingers 7.12502
rthumb 5.04242 -37.5842
lclavicle -4.33351e-014 -1.74931e-014
lhumerus -33.5504 -0.354143 86.1545
lradius 29.9469
lwrist 25.2418
lhand -19.5941 10.0677
lfingers 7.12502
lthumb 6.73166 39.9407
rfemur -56.0448 3.28454 4.69415
rtibia 27.3682
rfoot -31.9231 -18.3981
rtoes -11.5952
lfemur -17.4438 1.83695 -30.41
ltibia 28.7086
lfoot -16.3192 1.44244
ltoes -4.88284
656
root -21.0688 16.7506 -6.25158 689.427 -80.0465 -672.553
lowerback 25.4958 -1.12471 -0.80832
upperback 6.79016 -2.2009 -0.985821
thorax -6.63867 -1.23993 0.0743327
lowerneck 1.09448 -1.74097 1.11586
upperneck -5.31151 -2.26719 1.32335
head -1.83093 -1.19827 0.269107
rclavicle -8.74653e-015 -2.42517e-014
rhumerus -31.7528 -4.27607 -85.4271
rradius 26.8784
rwrist 2.1619
rhand -21.3695 -7.65313
rfingers 7.12502
rthumb 5.01753 -37.5737
lclavicle -8.74653e-015 -2.42517e-014
lhumerus -33.6426 -0.340858 86.2141
lradius 29.9191
lwrist 25.2399
lhand -19.5303 10.0783
lfingers 7.12502
lthumb 6.79326 39.9493
rfemur -55.6449 3.52501 4.08828
rtibia 26.3337
rfoot -31.9164 -18.7547
rtoes -11.6056
lfemur -16.4565 1.89082 -30.4036
ltibia 28.4559
lfoot -16.5064 1.42288
ltoes -5.22149
657
root -21.256 16.7261 -6.2729 689.624 -79.7453 -672.868
lowerback 25.3787 -1.16073 -0.843476
upperback 6.78281 -2.25127 -0.992964
thorax -6.58724 -1.26281 0.0987061
lowerneck 1.1174 -1.79358 1.08954
upperneck -5.24011 -2.33647 1.34752
head -1.81121 -1.23185 0.281997
rclavicle 2.70347e-014 1.82882e-014
rhumerus -31.8439 -4.34823 -85.3331
rradius 26.8128
rwrist 2.20323
rhand -21.3962 -7.63507
rfingers 7.12502
rthumb 4.99178 -37.5563
lclavicle 2.70347e-014 1.82882e-014
lhumerus -33.7396 -0.32296 86.2672
lradius 29.8886
lwrist 25.2312
lhand -19.4675 10.1113
lfingers 7.12502
lthumb 6.85384 39.9803
rfemur -55.3003 3.57862 3.73533
rtibia 25.8041
rfoot -31.8532 -18.79
rtoes -11.5565
lfemur -15.4686 1.93454 -30.3641
ltibia 28.2341
lfoot -16.7007 1.39435
ltoes -5.59865
658
root -21.4449 16.7021 -6.29521 689.821 -79.4692 -673.179
lowerback 25.2576 -1.19033 -0.876355
upperback 6.77327 -2.29239 -0.996745
thorax -6.53603 -1.28128 0.122441
lowerneck 1.14147 -1.84262 1.06386
upperneck -5.16882 -2.40095 1.37207
head -1.79172 -1.26306 0.294797
rclavicle -1.11319e-014 -9.54166e-015
rhumerus -31.9363 -4.42808 -85.2405
rradius 26.7543
rwrist 2.2736
rhand -21.421 -7.61737
rfingers 7.12502
rthumb 4.96785 -37.5391
lclavicle -1.11319e-014 -9.54166e-015
lhumerus -33.8428 -0.295839 86.3138
lradius 29.8596
lwrist 25.2152
lhand -19.4164 10.1447
lfingers 7.12502
lthumb 6.9032 40.0121
rfemur -55.0115 3.49863 3.60037
rtibia 25.7456
rfoot -31.7628 -18.5353
rtoes -11.3092
lfemur -14.4961 1.98534 -30.2931
ltibia 28.0402
lfoot -16.8959 1.36275
ltoes -5.99366
659
root -21.6364 16.6734 -6.31878 689.98 -79.2158 -673.454
lowerback 25.137 -1.21327 -0.911921
upperback 6.76602 -2.32582 -0.999626
thorax -6.48241 -1.29625 0.146252
lowerneck 1.16107 -1.88598 1.03162
upperneck -5.09483 -2.45783 1.40373
head -1.77039 -1.29049 0.310659
rclavicle -2.10712e-014 -1.55052e-014
rhumerus -32.0265 -4.51316 -85.1502
rradius 26.7039
rwrist 2.37831
rhand -21.443 -7.58643
rfingers 7.12502
rthumb 4.94662 -37.5087
lclavicle -2.10712e-014 -1.55052e-014
lhumerus -33.9458 -0.260616 86.3526
lradius 29.8236
lwrist 25.1866
lhand -19.3741 10.1671
lfingers 7.12502
lthumb 6.94408 40.0333
rfemur -54.7539 3.33956 3.63016
rtibia 26.0286
rfoot -31.4266 -18.243
rtoes -11.2251
lfemur -13.5473 2.04709 -30.1979
ltibia 27.9129
lfoot -17.1105 1.3397
ltoes -6.4662
660
root -21.8307 16.6389 -6.3439 690.094 -78.9835 -673.685
lowerback 25.0203 -1.22842 -0.956189
upperback 6.75766 -2.35146 -1.00174
thorax -6.43149 -1.30749 0.173581
lowerneck 1.18284 -1.92567 1.00044
upperneck -5.02145 -2.50982 1.43444
head -1.74967 -1.31549 0.325961
rclavicle 9.14409e-015 2.66371e-014
rhumerus -32.1201 -4.60335 -85.063
rradius 26.6664
rwrist 2.50913
rhand -21.4579 -7.55339
rfingers 7.12502
rthumb 4.93221 -37.476
lclavicle 9.14409e-015 2.66371e-014
lhumerus -34.056 -0.222659 86.3845
lradius 29.7852
lwrist 25.1491
lhand -19.3453 10.1659
lfingers 7.12502
lthumb 6.97182 40.0311
rfemur -54.4909 3.19348 3.72968
rtibia 26.5213
rfoot -30.8823 -17.9953
rtoes -11.2017
lfemur -12.6395 2.11757 -30.0775
ltibia 27.8847
lfoot -17.3588 1.29843
ltoes -6.93644
661
root -22.0282 16.5982 -6.37055 690.207 -78.777 -673.911
lowerback 24.9019 -1.23882 -1.00037
upperback 6.74679 -2.37074 -1.00248
thorax -6.38236 -1.31567 0.200399
lowerneck 1.21181 -1.96037 0.969773
upperneck -4.94825 -2.55486 1.46812
head -1.73026 -1.33711 0.342039
rclavicle 5.56597e-015 1.70955e-014
rhumerus -32.2199 -4.69202 -84.9836
rradius 26.6396
rwrist 2.6499
rhand -21.4748 -7.51483
rfingers 7.12502
rthumb 4.9159 -37.4378
lclavicle 5.56597e-015 1.70955e-014
lhumerus -34.1745 -0.175298 86.4035
lradius 29.7401
lwrist 25.0971
lhand -19.3225 10.1465
lfingers 7.12502
lthumb 6.99387 40.0109
rfemur -54.1877 3.11677 3.86006
rtibia 27.0956
rfoot -30.1273 -17.8703
rtoes -11.129
lfemur -11.7938 2.20113 -29.9225
ltibia 27.9865
lfoot -17.6433 1.23926
ltoes -7.46149
662
root -22.2277 16.5534 -6.39889 690.366 -78.5908 -674.17
lowerback 24.7801 -1.2448 -1.03721
upperback 6.73021 -2.38187 -1.00063
thorax -6.338 -1.3198 0.223391
lowerneck 1.23744 -1.99578 0.938409
upperneck -4.86701 -2.60076 1.50785
head -1.70756 -1.35919 0.359986
rclavicle 2.78299e-014 6.75868e-015
rhumerus -32.3252 -4.78338 -84.912
rradius 26.6206
rwrist 2.77014
rhand -21.4945 -7.48023
rfingers 7.12502
rthumb 4.89684 -37.4036
lclavicle 2.78299e-014 6.75868e-015
lhumerus -34.2965 -0.13301 86.4144
lradius 29.6876
lwrist 25.0372
lhand -19.3102 10.1112
lfingers 7.12502
lthumb 7.00573 39.9753
rfemur -53.8776 3.12439 4.00059
rtibia 27.731
rfoot -29.1593 -17.8904
rtoes -10.9573
lfemur -11.0187 2.28442 -29.7249
ltibia 28.2002
lfoot -17.9337 1.13825
ltoes -8.05152
663
root -22.4279 16.5082 -6.42835 690.698 -78.4422 -674.582
lowerback 24.661 -1.2541 -1.03211
upperback 6.69926 -2.38567 -0.991039
thorax -6.31201 -1.32008 0.229013
lowerneck 1.26907 -2.0309 0.908864
upperneck -4.7848 -2.64596 1.55236
head -1.68557 -1.38105 0.379144
rclavicle -7.55382e-015 1.11319e-014
rhumerus -32.4403 -4.87854 -84.8489
rradius 26.6069
rwrist 2.86525
rhand -21.5328 -7.44576
rfingers 7.12502
rthumb 4.85991 -37.37
lclavicle -7.55382e-015 1.11319e-014
lhumerus -34.4245 -0.0726378 86.4072
lradius 29.625
lwrist 24.9535
lhand -19.2937 10.0666
lfingers 7.12502
lthumb 7.02165 39.9301
rfemur -53.6256 3.19325 4.1857
rtibia 28.4388
rfoot -27.9003 -17.9942
rtoes -10.3864
lfemur -10.333 2.35333 -29.4538
ltibia 28.5128
lfoot -18.1897 0.993341
ltoes -8.71455
664
root -22.6262 16.4691 -6.45869 691.224 -78.3514 -675.148
lowerback 24.547 -1.26216 -0.973595
upperback 6.65079 -2.3736 -0.973683
thorax -6.3095 -1.31236 0.208435
lowerneck 1.2957 -2.06793 0.881866
upperneck -4.70561 -2.69323 1.61109
head -1.6635 -1.40435 0.402269
rclavicle 1.03368e-014 -2.50469e-014
rhumerus -32.548 -4.96679 -84.8027
rradius 26.5833
rwrist 2.92488
rhand -21.5887 -7.40922
rfingers 7.12502
rthumb 4.80589 -37.3347
lclavicle 1.03368e-014 -2.50469e-014
lhumerus -34.543 0.00791013 86.3796
lradius 29.5488
lwrist 24.846
lhand -19.2809 10.0233
lfingers 7.12502
lthumb 7.034 39.8864
rfemur -53.5234 3.28737 4.43557
rtibia 29.2513
rfoot -26.2775 -18.157
rtoes -9.76395
lfemur -9.77467 2.39164 -29.0984
ltibia 28.9201
lfoot -18.3576 0.808437
ltoes -9.43551
665
root -22.8206 16.4375 -6.48947 691.916 -78.3499 -675.837
lowerback 24.4569 -1.26309 -0.854643
upperback 6.58585 -2.33713 -0.946711
thorax -6.33908 -1.29277 0.157769
lowerneck 1.30445 -2.10108 0.849627
upperneck -4.63155 -2.73542 1.68261
head -1.6397 -1.42536 0.429923
rclavicle 4.29375e-014 9.93923e-015
rhumerus -32.6334 -5.02855 -84.7764
rradius 26.5406
rwrist 2.96357
rhand -21.6925 -7.34439
rfingers 7.12502
rthumb 4.70567 -37.2721
lclavicle 4.29375e-014 9.93923e-015
lhumerus -34.6418 0.120711 86.3324
lradius 29.4573
lwrist 24.7207
lhand -19.2796 9.98227
lfingers 7.12502
lthumb 7.03523 39.8454
rfemur -53.611 3.36592 4.79638
rtibia 30.1887
rfoot -24.3571 -18.2511
rtoes -8.47637
lfemur -9.37279 2.3926 -28.6547
ltibia 29.445
lfoot -18.4041 0.617455
ltoes -10.265
666
root -23.0102 16.4142 -6.52021 692.794 -78.4729 -676.674
lowerback 24.4088 -1.25403 -0.664913
upperback 6.50541 -2.27035 -0.905442
thorax -6.40862 -1.25883 0.0749469
lowerneck 1.29688 -2.12281 0.819202
upperneck -4.57252 -2.76276 1.75313
head -1.61797 -1.43914 0.4566
rclavicle -3.97569e-016 -2.22639e-014
rhumerus -32.6845 -5.03916 -84.7755
rradius 26.4872
rwrist 2.99597
rhand -21.8242 -7.26575
rfingers 7.12502
rthumb 4.5785 -37.1963
lclavicle -3.97569e-016 -2.22639e-014
lhumerus -34.726 0.27811 86.2695
lradius 29.3606
lwrist 24.597
lhand -19.3148 9.9481
lfingers 7.12502
lthumb 7.00125 39.8123
rfemur -53.9013 3.4353 5.29323
rtibia 31.25
rfoot -22.2483 -18.2467
rtoes -6.87963
lfemur -9.14601 2.36133 -28.1097
ltibia 30.1181
lfoot -18.3082 0.443798
ltoes -11.166
